<svg xmlns="http://www.w3.org/2000/svg" width="294" height="72">
    <path fill="#9AA5A9" fill-rule="evenodd" d="M292.336 26.842h-8.891c-.756 0-1.08-.468-1.08-1.332 0-.756.324-1.188 1.08-1.188h1.908c.755 0 1.079-.324 1.079-1.08V5.245c0-.756-.324-1.08-1.079-1.08h-1.908c-.756 0-1.08-.432-1.08-1.188 0-.864.324-1.332 1.08-1.332h4.787c.756 0 1.08.468 1.08 1.332v20.265c0 .756.324 1.08 1.08 1.08h1.944c.756 0 1.079.432 1.079 1.296 0 .756-.323 1.224-1.079 1.224zm-23.109 0h-.648c-.756 0-1.08-.324-1.08-1.08v-.72c0-.252-.072-.36-.144-.36s-.144.108-.18.18c-.504 1.08-2.231 2.124-4.391 2.124-5.003 0-5.003-5.003-5.003-5.003v-8.279s0-5.004 5.003-5.004c2.16 0 3.887 1.044 4.391 2.124.036.072.108.18.18.18s.144-.108.144-.36v-.72c0-.756.324-1.08 1.08-1.08h.648c.756 0 1.08.324 1.08 1.08v15.838c0 .756-.324 1.08-1.08 1.08zm-1.728-12.059c0-2.195-1.835-3.275-3.635-3.275-3.276 0-3.276 2.196-3.276 2.196v8.279s0 2.195 3.276 2.195c1.8 0 3.635-1.08 3.635-3.275v-6.12zm-25.052-9.107c-1.511 0-2.735-1.223-2.735-2.735 0-1.512 1.224-2.772 2.735-2.772 1.512 0 2.772 1.26 2.772 2.772 0 1.512-1.26 2.735-2.772 2.735zm1.98 4.248v15.838c0 .756-.324 1.08-1.08 1.08h-.72c-.756 0-1.08-.324-1.08-1.08V12.444c0-.756-.324-1.08-1.079-1.08h-1.908c-.756 0-1.08-.432-1.08-1.188 0-.864.324-1.332 1.08-1.332h4.787c.756 0 1.08.324 1.08 1.08zm-20.567 1.584h-1.836c-1.8 0-3.527 1.08-3.527 3.275v8.459c0 .756.324 1.08 1.08 1.08h2.195c.756 0 1.08.432 1.08 1.296 0 .756-.324 1.224-1.08 1.224h-8.171c-.756 0-1.08-.468-1.08-1.332 0-.756.324-1.188 1.08-1.188h.936c.756 0 1.08-.324 1.08-1.08l-.036-13.318c0-.756.324-1.08 1.08-1.08h.648c.756 0 1.08.324 1.08 1.08v.72c0 .252.072.36.144.36s.144-.108.18-.18c.504-1.08 2.231-2.124 4.391-2.124h.756c.756 0 1.08.324 1.08 1.08v.648c0 .756-.324 1.08-1.08 1.08zm-23.152 52.334h-.648c-.756 0-1.079-.324-1.079-1.08V50.847s0-2.195-2.196-2.195h-2.52c-2.196 0-2.196 2.195-2.196 2.195v11.915c0 .756-.324 1.08-1.08 1.08h-.647c-.756 0-1.08-.324-1.08-1.08V50.488s-.036-1.368 1.044-1.872c.072-.036.18-.108.18-.18s-.108-.144-.36-.144h-1.98c-.756 0-1.08-.324-1.08-1.08v-.288c0-.756.324-1.08 1.08-1.08h8.639c5.003 0 5.003 5.003 5.003 5.003v11.915c0 .756-.324 1.08-1.08 1.08zm-1.292-37h-1.476c-4.463 0-5.003-3.96-5.003-4.824v-9.574c0-.756-.324-1.08-1.08-1.08h-1.044c-.756 0-1.08-.324-1.08-1.08v-.54c0-.756.324-1.08 1.08-1.08h1.044c.756 0 1.08-.324 1.08-1.08V3.805c0-.756.36-1.08 1.116-1.08h.72c.756 0 1.079.324 1.079 1.08v3.779c0 .756.253 1.08 1.008 1.08h2.52c.756 0 1.08.324 1.08 1.08v.54c0 .756-.324 1.08-1.08 1.08h-2.556c-.755 0-1.079.324-1.079 1.08v9.503c.036.467.324 2.087 2.195 2.087h1.476c.756 0 1.08.324 1.08 1.08v.648c0 .756-.324 1.08-1.08 1.08zm-27.093.144c-2.808 0-5.975-1.728-5.975-5.435v-.18c0-.756.324-1.08 1.08-1.116h.576c.791 0 1.079.396 1.079 1.044v.359c0 1.584 1.8 2.628 3.132 2.628 1.26 0 2.916-.648 2.916-2.087 0-3.492-8.351-3.384-8.351-8.459 0-3.24 2.411-5.148 5.435-5.148 2.808 0 5.111 1.728 5.111 4.716v.18c0 .756-.324 1.079-1.079 1.115h-.576c-.792 0-1.08-.396-1.08-1.043v-.36c0-.864-1.152-1.872-2.484-1.872-1.26 0-2.34.792-2.34 2.232 0 3.059 8.135 2.771 8.135 8.639 0 3.023-2.915 4.787-5.579 4.787zm3.765 18.858c.756 0 1.08.324 1.08 1.08v.288c0 .756-.324 1.08-1.08 1.08h-1.98c-.252 0-.36.072-.36.144s.108.144.18.18c1.08.504 1.044 1.872 1.044 1.872l.036 15.694c0 .792-.504 4.859-5.004 4.859h-4.643c-.756 0-1.08-.324-1.08-1.08v-.648c0-.756.324-1.08 1.08-1.08h4.643c1.872 0 2.196-1.619 2.196-2.195v-5.436c0-.252-.072-.36-.144-.36s-.144.108-.18.18c-.504 1.08-2.231 2.124-4.391 2.124-5.004 0-5.004-5.003-5.004-5.003v-6.696s0-5.003 5.004-5.003h8.603zm-10.799 5.003v6.696s0 2.195 3.276 2.195c1.799 0 3.635-1.079 3.635-3.275l-.036-5.616c0-1.151-.9-2.195-2.196-2.195h-2.483c-2.196 0-2.196 2.195-2.196 2.195zm-10.751-24.005h-7.919c-5.003 0-5.003-5.003-5.003-5.003l.036-11.951c0-.756.324-1.08 1.08-1.08h.648c.755 0 1.079.324 1.079 1.08l-.036 11.951s0 2.195 2.196 2.195h2.52c2.088 0 2.196-1.872 2.196-2.051V9.888c0-.756.324-1.08 1.079-1.08h.648c.756 0 1.08.324 1.08 1.08v10.907c0 1.835-.684 2.879-1.764 3.383-.072.036-.18.108-.18.18s.108.144.36.144h1.98c.756 0 1.08.324 1.08 1.08v.18c0 .756-.324 1.08-1.08 1.08zm-30.142 37.144c-2.807 0-5.975-1.728-5.975-5.436v-.179c0-.756.324-1.08 1.08-1.116h.576c.792 0 1.08.396 1.08 1.044v.36c0 1.583 1.799 2.627 3.131 2.627 1.26 0 2.916-.648 2.916-2.088 0-3.491-8.351-3.383-8.351-8.458 0-3.24 2.412-5.148 5.435-5.148 2.808 0 5.112 1.728 5.112 4.716v.18c0 .755-.324 1.079-1.08 1.115h-.576c-.792 0-1.08-.396-1.08-1.043v-.36c0-.864-1.152-1.872-2.484-1.872-1.26 0-2.339.792-2.339 2.232 0 3.059 8.134 2.771 8.134 8.638 0 3.024-2.915 4.788-5.579 4.788zm4.291-37.144h-.648c-.756 0-1.08-.324-1.08-1.08v-.72c0-.252-.072-.36-.144-.36s-.144.108-.18.18c-.504 1.08-2.232 2.124-4.391 2.124-5.004 0-5.004-5.003-5.004-5.003v-8.279s0-5.004 5.004-5.004c2.159 0 3.887 1.044 4.391 2.124.036.072.108.18.18.18s.144-.108.144-.36V2.005c0-.756.324-1.08 1.08-1.08h.648c.756 0 1.08.324 1.08 1.08v23.757c0 .756-.324 1.08-1.08 1.08zm-1.728-12.059c0-2.195-1.836-3.275-3.635-3.275-3.276 0-3.276 2.196-3.276 2.196v8.279s0 2.195 3.276 2.195c1.799 0 3.635-1.08 3.635-3.275v-6.12zm-22.972 41.608h-5.759c-.756 0-1.08.324-1.08 1.08v1.404s0 2.195 2.196 2.195h6.083c.756 0 1.08.324 1.08 1.08v.612c0 .756-.324 1.08-1.08 1.08h-6.083c-5.003 0-5.003-5.004-5.003-5.004v-7.991s0-5.003 5.003-5.003h2.88c5.003 0 5.003 5.003 5.003 5.003v2.304c0 2.268-.972 3.24-3.24 3.24zm.432-5.58s0-2.195-2.195-2.195h-2.88c-2.196 0-2.196 2.195-2.196 2.195v1.872c0 .756.324 1.08 1.08 1.08h5.111c.756 0 1.08-.324 1.08-1.08v-1.872zm.375-23.969h-.648c-.756 0-1.08-.324-1.08-1.08V13.848s0-2.196-2.196-2.196h-2.52c-2.195 0-2.195 2.196-2.195 2.196v11.914c0 .756-.324 1.08-1.08 1.08h-.648c-.756 0-1.08-.324-1.08-1.08V13.488s-.036-1.368 1.044-1.872c.072-.036.18-.108.18-.18s-.108-.144-.36-.144h-1.98c-.756 0-1.08-.324-1.08-1.08v-.288c0-.756.324-1.08 1.08-1.08h8.639c5.003 0 5.003 5.004 5.003 5.004v11.914c0 .756-.324 1.08-1.079 1.08zm-29.113 37H70.03c-.684 0-.972-.288-.972-.972V39.617c0-.684.288-.972.972-.972h5.651c3.06 0 7.307 1.26 7.307 7.523v10.151c0 6.263-4.247 7.523-7.307 7.523zm4.607-17.998c0-2.592-1.403-4.535-4.859-4.535h-2.52c-.827 0-1.187.36-1.187 1.188V59.99c0 .828.36 1.188 1.187 1.188h2.52c3.456 0 4.859-1.944 4.859-4.535V45.844zm-2.231-21.522H80c.756 0 1.08.432 1.08 1.296 0 .756-.324 1.224-1.08 1.224h-8.89c-.756 0-1.08-.468-1.08-1.332 0-.756.324-1.188 1.08-1.188h1.907c.756 0 1.08-.324 1.08-1.08V5.245c0-.756-.324-1.08-1.08-1.08H71.11c-.756 0-1.08-.432-1.08-1.188 0-.864.324-1.332 1.08-1.332H80c.756 0 1.08.468 1.08 1.332 0 .756-.324 1.188-1.08 1.188h-1.943c-.756 0-1.08.324-1.08 1.08v17.997c0 .756.324 1.08 1.08 1.08zm-24.355 6.479c-.568 2.349-.932 4.536-1.796 6.53-3.249 7.495-8.476 12.022-16.105 15.155-1.516.623-3.264.787-4.969 1.199-.816.196-1.714.057-2.515.239-.724.165-2.939.015-3.532-.12-.958-.217-1.803-.068-2.694-.299-2.052-.534-3.956-1.039-5.688-1.797-6.054-2.653-11.24-7.401-13.889-13.419-.559-1.268-.917-2.483-1.377-3.894-.402-1.23-.571-2.683-.899-4.073l-.119-2.037c-.208-.967-.145-2.632.06-3.534l.119-1.618c.413-1.705.575-3.455 1.198-4.972C4.631 10.526 9.148 5.3 16.643 2.047 18.429 1.272 20.381.89 22.45.37l2.335-.3c.294-.066.689.071.898-.06 7.334-.144 12.426 1.888 16.644 4.853 4.291 3.017 7.393 6.78 9.579 11.921.569 1.339 1.005 2.843 1.437 4.373l.479 2.935v.659c.195.902.277 2.569.059 3.534-.191.848.016 1.708-.179 2.516zM29.392 46.59c.272.378.794 1.461 1.256 1.555.329-.201.852-.125 1.256-.239.664-.187 1.436-.379 2.033-.658-.338-.342-.854-.496-1.256-.777-.633-.443-1.231-.966-1.854-1.435l-.658-.718c-.165-.125-.355-.197-.478-.359-.639-.845-1.422-1.579-2.033-2.452-.355-.506-.582-1.185-1.017-1.614.463 2.82 1.403 4.823 2.751 6.697zm-9.568.598c.408.047.74.248 1.076.359l2.333.538v-.059c-.291-.302-.394-.744-.598-1.137-.867-1.668-1.329-3.53-1.854-5.621l-.239-2.212c-.073-.324.087-.783-.06-1.017-.095.708-.46 1.425-.658 2.093-.489 1.653-.589 5.431 0 7.056zm-8.013-5.262l1.614 1.435v-.837l.299-2.512c.423-1.641.794-3.226 1.436-4.604.162-.348.935-1.901.897-2.033l-1.615 1.435c-1.32 1.742-2.934 3.66-3.528 6.099.364.243.634.668.897 1.017zm-5.143-9.508c.187.664.379 1.436.658 2.033.515-.511.831-1.321 1.256-1.914 1.148-1.599 2.641-2.976 4.245-4.126.541-.388 1.112-.977 1.794-1.196v-.06h-.119c-.209.125-.5.045-.778.12-.569.153-1.232.27-1.794.478-1.538.571-2.802 1.286-4.006 2.153-.372.268-1.404.794-1.495 1.256.201.329.125.852.239 1.256zm2.87-12.498c-.661.143-1.444.248-2.152.299-.261 1.113-.689 2.253-.957 3.468h.06c.301-.291.743-.394 1.136-.598 1.668-.867 3.53-1.328 5.621-1.854l2.213-.239c.323-.073.782.087 1.016-.06-.704-.085-1.429-.46-2.093-.658-1.108-.33-2.455-.39-3.767-.418-.249.152-.736-.014-1.077.06zm4.067-8.492c-.534.795-2.121 1.592-2.452 2.512h.777c.344.2.941.02 1.376.119l2.093.359c1.271.358 2.554.694 3.707 1.196l2.034 1.017v-.06c-.719-.498-1.152-1.442-1.854-1.974-1.539-1.163-3.553-2.65-5.681-3.169zm11.78-1.973c-.559-.888-1.307-1.673-1.853-2.572h-.18c-.329.202-.852.126-1.256.239-.664.188-1.436.379-2.033.658.492.496 1.548 1 2.153 1.435 1.541 1.109 2.851 2.624 3.947 4.186.37.528.923 1.07 1.136 1.735h.06c-.367-2.206-.975-4.099-1.974-5.681zM27 21c-3.314 0-6 2.686-6 6s2.686 6 6 6 6-2.686 6-6-2.686-6-6-6zm7.176-13.16c-.408-.046-.74-.248-1.076-.359l-2.333-.538.957 1.794c.559 1.265.928 2.639 1.316 4.066.271 1.001.18 2.112.418 3.17.073.323-.087.783.06 1.016.095-.707.46-1.424.658-2.093.489-1.653.589-5.431 0-7.056zM32.86 38.398c1.295 2.001 4.893 4.564 7.535 5.202.534-.795 2.121-1.591 2.452-2.511H41.83c-.326-.191-.904-.024-1.315-.12l-2.512-.478c-1.164-.356-2.328-.722-3.408-1.196-.573-.251-1.124-.693-1.735-.897zm4.665-4.306c.515.066.981.331 1.435.479l2.332.478c1.738.4 3.713-.131 5.322-.239.203-.821.463-1.664.718-2.572.068-.24.268-.686.179-.897-.301.291-.743.394-1.136.598-1.668.868-3.53 1.329-5.621 1.854l-2.213.239c-.323.073-.782-.087-1.016.06zm3.05-22.425c.061 2.729-.663 5.572-1.495 7.535l-1.196 2.452h.059c.498-.718 1.442-1.151 1.974-1.854 1.164-1.539 2.651-3.552 3.169-5.681-.795-.534-1.591-2.121-2.511-2.452zm6.039 8.91c-.248.783-.931 1.417-1.375 2.034-1.164 1.618-2.55 2.918-4.186 4.066-.527.37-1.069.924-1.734 1.136v.06h.119c.209-.124.499-.048.778-.12.529-.136 1.146-.226 1.674-.418 1.611-.587 2.937-1.305 4.186-2.213.367-.266 1.406-.861 1.495-1.315-.437-.723-.332-2.728-.957-3.23zM27 29c-1.105 0-2-.895-2-2s.895-2 2-2 2 .895 2 2-.895 2-2 2zm120.148 13.677c-1.512 0-2.735-1.224-2.735-2.736 0-1.512 1.223-2.772 2.735-2.772 1.512 0 2.772 1.26 2.772 2.772 0 1.512-1.26 2.736-2.772 2.736zm-3.887 3.167h4.787c.756 0 1.08.324 1.08 1.08v15.838c0 .756-.324 1.08-1.08 1.08h-.72c-.756 0-1.08-.324-1.08-1.08V49.444c0-.756-.324-1.08-1.08-1.08h-1.907c-.756 0-1.08-.432-1.08-1.188 0-.864.324-1.332 1.08-1.332z"/>
</svg>
